<svg version="1.1" id="レイヤー_1" xmlns="http://www.w3.org/2000/svg" x="0" y="0" viewBox="0 0 324.73 55.71" style="enable-background:new 0 0 324.73 55.71" xml:space="preserve"><style>.st0{fill:#3e3a39}.st1{fill:#0c8080}</style><path class="st0" d="M97.95 47.57V33.18c0-5.66 3.41-9.52 12.37-9.52h16.01c3.36 0 4.93-1.29 4.93-3.64v-2.41c0-2.35-1.57-3.64-4.93-3.64h-26.26V8.15h26.26c8.96 0 12.38 3.86 12.38 9.52v2.3c0 5.65-3.42 9.52-12.38 9.52h-16.01c-3.36 0-4.93 1.29-4.93 3.64v8.62h33.32v5.82H97.95zM158.57 47.57v-5.82h30.18c3.36 0 4.93-1.29 4.93-3.64v-5.54h-24.86c-8.96 0-12.37-3.86-12.37-9.52v-5.38c0-5.66 3.42-9.52 12.37-9.52h19.93c8.96 0 12.37 3.86 12.37 9.52v20.38c0 5.66-3.42 9.52-12.37 9.52h-30.18zm35.11-29.96c0-2.35-1.57-3.64-4.93-3.64h-19.93c-3.36 0-4.93 1.29-4.93 3.64v5.49c0 2.35 1.57 3.64 4.93 3.64h24.86v-9.13zM231.4 47.57c-8.96 0-12.38-3.86-12.38-9.52V17.67c0-5.65 3.42-9.52 12.38-9.52h30.46v5.82H231.4c-3.36 0-4.93 1.29-4.93 3.64v4.53h24.86c8.96 0 12.37 3.86 12.37 9.52v6.38c0 5.66-3.41 9.52-12.37 9.52H231.4zm24.86-15.96c0-2.35-1.57-3.64-4.93-3.64h-24.86V38.1c0 2.35 1.57 3.64 4.93 3.64h19.93c3.36 0 4.93-1.29 4.93-3.64v-6.49zM293.82 47.57c-8.96 0-12.37-3.86-12.37-9.52V17.67c0-5.66 3.41-9.52 12.37-9.52h18.53c8.96 0 12.37 3.86 12.37 9.52v20.38c0 5.66-3.41 9.52-12.37 9.52h-18.53zm23.46-29.96c0-2.35-1.57-3.64-4.93-3.64h-18.53c-3.36 0-4.93 1.29-4.93 3.64V38.1c0 2.35 1.57 3.64 4.93 3.64h18.53c3.36 0 4.93-1.29 4.93-3.64V17.61z"/><path class="st1" d="M25.49 25.49H0V9.85h19.7V5.79H0V0h25.49v15.64H5.79v4.06h19.7zM55.71 25.49H30.23V19.7h19.7v-4.06h-19.7V0h25.49v25.49zM36.01 9.85h13.92V5.79H36.01v4.06zM25.49 55.71H0V30.23h25.49v5.79H5.79v4.07h19.7v15.62zm-19.7-5.78H19.7v-4.06H5.79v4.06z"/><path d="M55.71 55.71H30.23V30.23h25.49v25.48zm-19.7-5.78h13.92V36.01H36.01v13.92z" style="fill:#bf9b46"/></svg>