<svg xmlns="http://www.w3.org/2000/svg" x="0" y="0" viewBox="0 0 123.35 99" style="enable-background:new 0 0 123.35 99" xml:space="preserve"><style>.st0{fill:#fff}.st1{fill:#0c8080}</style><path class="st0" d="M0 99v-7.83C0 88.1 1.86 86 6.73 86h8.71c1.83 0 2.68-.7 2.68-1.98v-1.31c0-1.28-.85-1.98-2.68-1.98H1.16v-3.17h14.28c4.87 0 6.73 2.1 6.73 5.18v1.25c0 3.07-1.86 5.18-6.73 5.18H6.73c-1.83 0-2.68.7-2.68 1.98v4.69h18.12V99H0zM32.97 99v-3.17h16.41c1.83 0 2.68-.7 2.68-1.98v-3.01H38.55c-4.87 0-6.73-2.1-6.73-5.18v-2.92c0-3.08 1.86-5.18 6.73-5.18h10.84c4.87 0 6.73 2.1 6.73 5.18v11.08c0 3.08-1.86 5.18-6.73 5.18H32.97zm19.1-16.29c0-1.28-.85-1.98-2.68-1.98H38.55c-1.83 0-2.68.7-2.68 1.98v2.99c0 1.28.85 1.98 2.68 1.98h13.52v-4.97zM72.59 99c-4.87 0-6.73-2.1-6.73-5.18V82.74c0-3.08 1.86-5.18 6.73-5.18h16.57v3.17H72.59c-1.83 0-2.68.7-2.68 1.98v2.47h13.52c4.87 0 6.73 2.1 6.73 5.18v3.47c0 3.08-1.86 5.18-6.73 5.18H72.59zm13.52-8.68c0-1.28-.85-1.98-2.68-1.98H69.91v5.51c0 1.28.85 1.98 2.68 1.98h10.84c1.83 0 2.68-.7 2.68-1.98v-3.53zM106.54 99c-4.87 0-6.73-2.1-6.73-5.18V82.74c0-3.08 1.86-5.18 6.73-5.18h10.08c4.87 0 6.73 2.1 6.73 5.18v11.08c0 3.08-1.86 5.18-6.73 5.18h-10.08zm12.76-16.29c0-1.28-.85-1.98-2.68-1.98h-10.08c-1.83 0-2.68.7-2.68 1.98v11.15c0 1.28.85 1.98 2.68 1.98h10.08c1.83 0 2.68-.7 2.68-1.98V82.71z"/><path class="st1" d="M59.12 27.47H31.65V10.62h21.24V6.24H31.65V0h27.47v16.85H37.89v4.38h21.23zM91.69 27.47H64.23v-6.24h21.23v-4.38H64.23V0H91.7v27.47zM70.46 10.62h15V6.24h-15v4.38zM59.12 60.04H31.65V32.57h27.47v6.24H37.89v4.38h21.23v16.85zm-21.23-6.23h15v-4.38h-15v4.38z"/><path d="M91.69 60.04H64.23V32.57H91.7v27.47zm-21.23-6.23h15v-15h-15v15z" style="fill:#bf9b46"/></svg>