<?xml version="1.0" encoding="utf-8"?>
<!-- Generator: Adobe Illustrator 27.5.0, SVG Export Plug-In . SVG Version: 6.00 Build 0)  -->
<svg version="1.1" id="レイヤー_1" xmlns="http://www.w3.org/2000/svg" xmlns:xlink="http://www.w3.org/1999/xlink" x="0px"
	 y="0px" viewBox="0 0 55.71 55.71" style="enable-background:new 0 0 55.71 55.71;" xml:space="preserve">
<style type="text/css">
	.st0{fill:#0C8080;}
	.st1{fill:#BF9B46;}
</style>
<polygon class="st0" points="25.49,25.49 0,25.49 0,9.85 19.7,9.85 19.7,5.79 0,5.79 0,0 25.49,0 25.49,15.64 5.79,15.64 5.79,19.7 
	25.49,19.7 "/>
<path class="st0" d="M55.71,25.49H30.23V19.7h19.7v-4.06h-19.7V0h25.49V25.49z M36.01,9.85h13.92V5.79H36.01V9.85z"/>
<path class="st0" d="M25.49,55.71H0V30.23h25.49v5.79H5.79v4.07h19.7V55.71z M5.79,49.93H19.7v-4.06H5.79V49.93z"/>
<path class="st1" d="M55.71,55.71H30.23V30.23h25.49V55.71z M36.01,49.93h13.92V36.01H36.01V49.93z"/>
</svg>
